<svg width="512" height="512" viewBox="0 0 512 512" fill="none" xmlns="http://www.w3.org/2000/svg">
<rect width="512" height="512" rx="112" fill="#0E100F"/>
<path d="M255.191 272.951C255.231 273.032 255.269 273.114 255.307 273.195L255.072 272.717L255.191 272.951Z" fill="white"/>
<path d="M252.662 167.275C265.971 167.52 270.281 183.333 270.884 194.526C271.111 200.764 270.403 206.959 268.977 213.053C253.286 212.372 238.792 206.25 233.939 189.469C230.661 177.97 241.202 167.143 252.662 167.275Z" fill="white"/>
<path fill-rule="evenodd" clip-rule="evenodd" d="M429.333 89C444.061 89 456 100.939 456 115.667V302.674C456 332.129 432.122 356.008 402.667 356.008H342.853C328.437 356.008 314.636 361.843 304.593 372.184L255.889 422.333L207.185 372.184C197.142 361.843 183.34 356.008 168.925 356.008H109.333C79.878 356.008 56 332.129 56 302.674V115.667C56 100.939 67.9394 89 82.667 89H429.333ZM282.477 156.296C272.385 145.133 255.817 140.961 241.518 145.428C224.338 150.536 210.018 166.014 209.466 184.482C208.771 208.803 231.427 228.625 254.48 230.854C257.169 231.148 259.882 231.291 262.609 231.295C258.359 240.584 252.842 249.46 246.94 257.677C228.815 227.779 201.643 203.29 169.345 189.896C161.823 186.714 154.024 184.224 146.047 182.458C143.33 181.898 140.745 181.399 137.875 181.084C137.178 181.018 136.48 181.204 135.908 181.605C135.336 182.007 134.927 182.6 134.756 183.276C134.584 183.952 134.662 184.668 134.974 185.292C135.285 185.916 135.811 186.409 136.455 186.681C154.487 195.597 171.026 207.241 185.483 221.197C204.218 239.221 218.978 260.937 228.822 284.959C233.163 295.307 246.779 299.092 255.89 292.438C257.288 291.406 258.566 290.222 259.699 288.906C267.867 280.052 275.058 270.35 281.148 259.967C287.37 249.356 292.497 237.57 295.492 225.312C314.173 218.793 331.777 207.67 345.232 195.595L345.243 195.615C345.767 195.125 346.09 194.459 346.151 193.746C346.212 193.033 346.006 192.322 345.572 191.751C345.139 191.18 344.508 190.789 343.803 190.653C343.097 190.518 342.366 190.647 341.75 191.016C328.253 199.085 313.357 205.474 298.087 209.373C298.543 203.566 298.447 197.722 297.696 191.911C295.97 179.008 291.588 166.115 282.477 156.296ZM364.371 171.1C363.512 168.778 360.228 168.778 359.369 171.1L357.254 176.816C356.984 177.546 356.408 178.122 355.679 178.392L349.962 180.507C347.641 181.366 347.641 184.649 349.962 185.508L355.679 187.623C356.409 187.893 356.984 188.469 357.254 189.199L359.369 194.916C360.228 197.237 363.512 197.237 364.371 194.916L366.486 189.199C366.756 188.469 367.332 187.893 368.062 187.623L373.778 185.508C376.099 184.649 376.1 181.366 373.778 180.507L368.062 178.392C367.332 178.122 366.757 177.546 366.486 176.816L364.371 171.1Z" fill="white"/>
</svg>
